HIERARCHY
ROOT Hips
{
  OFFSET 0.849866 78.6569 -0.536788
  CHANNELS 6 Xposition Yposition Zposition Zrotation Xrotation Yrotation
  JOINT Bip01_Pelvis
  {
    OFFSET 0 0 0
    CHANNELS 6 Xposition Yposition Zposition Zrotation Xrotation Yrotation
    JOINT BN_Tail_01
    {
      OFFSET -5.52397 -0.332285 0
      CHANNELS 6 Xposition Yposition Zposition Zrotation Xrotation Yrotation
      JOINT BN_Tail_02
      {
        OFFSET 6.48885 -2.032e-005 0
        CHANNELS 6 Xposition Yposition Zposition Zrotation Xrotation Yrotation
        JOINT BN_Tail_03
        {
          OFFSET 7.08759 1.016e-005 -0.00261112
          CHANNELS 6 Xposition Yposition Zposition Zrotation Xrotation Yrotation
          End Site
          {
            OFFSET 0 0 0
          }
        }
      }
    }
    JOINT Bip01_Spine
    {
      OFFSET 4.02227 0.398968 0
      CHANNELS 6 Xposition Yposition Zposition Zrotation Xrotation Yrotation
      JOINT BN_UpperArm_R_01
      {
        OFFSET 4.84413 -3.22857 -3.65581
        CHANNELS 6 Xposition Yposition Zposition Zrotation Xrotation Yrotation
        JOINT BN_Forearm_R_01
        {
          OFFSET 8.51614 0 0
          CHANNELS 6 Xposition Yposition Zposition Zrotation Xrotation Yrotation
          JOINT BN_hand_R_01
          {
            OFFSET 10.1924 0 0
            CHANNELS 6 Xposition Yposition Zposition Zrotation Xrotation Yrotation
            JOINT BN_Finger_R_02
            {
              OFFSET 14.5949 -1.43855 0.585079
              CHANNELS 6 Xposition Yposition Zposition Zrotation Xrotation Yrotation
              End Site
              {
                OFFSET 0 0 0
              }
            }
            JOINT BN_Finger_R_01
            {
              OFFSET 14.4623 0 0
              CHANNELS 6 Xposition Yposition Zposition Zrotation Xrotation Yrotation
              End Site
              {
                OFFSET 0 0 0
              }
            }
          }
        }
      }
      JOINT BN_UpperArm_L_01
      {
        OFFSET 4.84412 -3.22858 3.65557
        CHANNELS 6 Xposition Yposition Zposition Zrotation Xrotation Yrotation
        JOINT BN_Forearm_L_01
        {
          OFFSET 8.51611 0 0
          CHANNELS 6 Xposition Yposition Zposition Zrotation Xrotation Yrotation
          JOINT BN_hand_L_01
          {
            OFFSET 10.1924 0 0
            CHANNELS 6 Xposition Yposition Zposition Zrotation Xrotation Yrotation
            JOINT BN_Finger_L_01
            {
              OFFSET 14.4623 0 0
              CHANNELS 6 Xposition Yposition Zposition Zrotation Xrotation Yrotation
              End Site
              {
                OFFSET 0 0 0
              }
            }
            JOINT BN_Finger_L_02
            {
              OFFSET 14.5949 1.43855 0.585071
              CHANNELS 6 Xposition Yposition Zposition Zrotation Xrotation Yrotation
              End Site
              {
                OFFSET 0 0 0
              }
            }
          }
        }
      }
      JOINT Bip01_R_Thigh
      {
        OFFSET -4.03411 -0.254132 -3.45377
        CHANNELS 6 Xposition Yposition Zposition Zrotation Xrotation Yrotation
        JOINT Bip01_R_Calf
        {
          OFFSET 3.92618 0 0
          CHANNELS 6 Xposition Yposition Zposition Zrotation Xrotation Yrotation
          JOINT Bip01_R_HorseLink
          {
            OFFSET 6.12319 0 0
            CHANNELS 6 Xposition Yposition Zposition Zrotation Xrotation Yrotation
            JOINT Bip01_R_Foot
            {
              OFFSET 9.94776 0 0
              CHANNELS 6 Xposition Yposition Zposition Zrotation Xrotation Yrotation
              JOINT Bip01_R_Toe3
              {
                OFFSET 0.881252 -0.110953 0.0158496
                CHANNELS 6 Xposition Yposition Zposition Zrotation Xrotation Yrotation
                JOINT Bip01_R_Toe31
                {
                  OFFSET 2.32137 0 0
                  CHANNELS 6 Xposition Yposition Zposition Zrotation Xrotation Yrotation
                  JOINT Bip01_R_Toe32
                  {
                    OFFSET 1.63293 0 0
                    CHANNELS 6 Xposition Yposition Zposition Zrotation Xrotation Yrotation
                    JOINT Bip01_R_Toe3Nub
                    {
                      OFFSET 1.72131 0 0
                      CHANNELS 6 Xposition Yposition Zposition Zrotation Xrotation Yrotation
                      End Site
                      {
                        OFFSET 0 0 0
                      }
                    }
                  }
                }
              }
              JOINT Bip01_R_Toe2
              {
                OFFSET 0.994751 0.967285 -1.09428
                CHANNELS 6 Xposition Yposition Zposition Zrotation Xrotation Yrotation
                JOINT Bip01_R_Toe21
                {
                  OFFSET 2.20201 0 0
                  CHANNELS 6 Xposition Yposition Zposition Zrotation Xrotation Yrotation
                  JOINT Bip01_R_Toe22
                  {
                    OFFSET 1.84925 0 0
                    CHANNELS 6 Xposition Yposition Zposition Zrotation Xrotation Yrotation
                    JOINT Bip01_R_Toe2Nub
                    {
                      OFFSET 1.70976 0 0
                      CHANNELS 6 Xposition Yposition Zposition Zrotation Xrotation Yrotation
                      End Site
                      {
                        OFFSET 0 0 0
                      }
                    }
                  }
                }
              }
              JOINT Bip01_R_Toe1
              {
                OFFSET 1.3748 1.34027 -0.0712419
                CHANNELS 6 Xposition Yposition Zposition Zrotation Xrotation Yrotation
                JOINT Bip01_R_Toe11
                {
                  OFFSET 2.26122 0 0
                  CHANNELS 6 Xposition Yposition Zposition Zrotation Xrotation Yrotation
                  JOINT Bip01_R_Toe12
                  {
                    OFFSET 2.22215 0 0
                    CHANNELS 6 Xposition Yposition Zposition Zrotation Xrotation Yrotation
                    JOINT Bip01_R_Toe1Nub
                    {
                      OFFSET 1.61867 0 0
                      CHANNELS 6 Xposition Yposition Zposition Zrotation Xrotation Yrotation
                      End Site
                      {
                        OFFSET 0 0 0
                      }
                    }
                  }
                }
              }
              JOINT Bip01_R_Toe0
              {
                OFFSET 1.40695 0.687986 0.883783
                CHANNELS 6 Xposition Yposition Zposition Zrotation Xrotation Yrotation
                JOINT Bip01_R_Toe01
                {
                  OFFSET 2.26828 0 0
                  CHANNELS 6 Xposition Yposition Zposition Zrotation Xrotation Yrotation
                  JOINT Bip01_R_Toe02
                  {
                    OFFSET 2.09769 0 0
                    CHANNELS 6 Xposition Yposition Zposition Zrotation Xrotation Yrotation
                    JOINT Bip01_R_Toe0Nub
                    {
                      OFFSET 1.53753 0 0
                      CHANNELS 6 Xposition Yposition Zposition Zrotation Xrotation Yrotation
                      End Site
                      {
                        OFFSET 0 0 0
                      }
                    }
                  }
                }
              }
            }
          }
        }
      }
      JOINT Bip01_L_Thigh
      {
        OFFSET -4.03411 -0.254147 3.45377
        CHANNELS 6 Xposition Yposition Zposition Zrotation Xrotation Yrotation
        JOINT Bip01_L_Calf
        {
          OFFSET 3.92616 0 0
          CHANNELS 6 Xposition Yposition Zposition Zrotation Xrotation Yrotation
          JOINT Bip01_L_HorseLink
          {
            OFFSET 6.1232 0 0
            CHANNELS 6 Xposition Yposition Zposition Zrotation Xrotation Yrotation
            JOINT Bip01_L_Foot
            {
              OFFSET 9.94775 0 0
              CHANNELS 6 Xposition Yposition Zposition Zrotation Xrotation Yrotation
              JOINT Bip01_L_Toe3
              {
                OFFSET 0.881246 -0.110986 -0.0157582
                CHANNELS 6 Xposition Yposition Zposition Zrotation Xrotation Yrotation
                JOINT Bip01_L_Toe31
                {
                  OFFSET 2.32136 0 0
                  CHANNELS 6 Xposition Yposition Zposition Zrotation Xrotation Yrotation
                  JOINT Bip01_L_Toe32
                  {
                    OFFSET 1.63293 0 0
                    CHANNELS 6 Xposition Yposition Zposition Zrotation Xrotation Yrotation
                    JOINT Bip01_L_Toe3Nub
                    {
                      OFFSET 1.7213 0 0
                      CHANNELS 6 Xposition Yposition Zposition Zrotation Xrotation Yrotation
                      End Site
                      {
                        OFFSET 0 0 0
                      }
                    }
                  }
                }
              }
              JOINT Bip01_L_Toe2
              {
                OFFSET 0.994649 0.967162 1.09447
                CHANNELS 6 Xposition Yposition Zposition Zrotation Xrotation Yrotation
                JOINT Bip01_L_Toe21
                {
                  OFFSET 2.202 0 0
                  CHANNELS 6 Xposition Yposition Zposition Zrotation Xrotation Yrotation
                  JOINT Bip01_L_Toe22
                  {
                    OFFSET 1.84926 0 0
                    CHANNELS 6 Xposition Yposition Zposition Zrotation Xrotation Yrotation
                    JOINT Bip01_L_Toe2Nub
                    {
                      OFFSET 1.70976 0 0
                      CHANNELS 6 Xposition Yposition Zposition Zrotation Xrotation Yrotation
                      End Site
                      {
                        OFFSET 0 0 0
                      }
                    }
                  }
                }
              }
              JOINT Bip01_L_Toe1
              {
                OFFSET 1.37483 1.34021 0.0715086
                CHANNELS 6 Xposition Yposition Zposition Zrotation Xrotation Yrotation
                JOINT Bip01_L_Toe11
                {
                  OFFSET 2.26124 0 0
                  CHANNELS 6 Xposition Yposition Zposition Zrotation Xrotation Yrotation
                  JOINT Bip01_L_Toe12
                  {
                    OFFSET 2.22214 0 0
                    CHANNELS 6 Xposition Yposition Zposition Zrotation Xrotation Yrotation
                    JOINT Bip01_L_Toe1Nub
                    {
                      OFFSET 1.61867 0 0
                      CHANNELS 6 Xposition Yposition Zposition Zrotation Xrotation Yrotation
                      End Site
                      {
                        OFFSET 0 0 0
                      }
                    }
                  }
                }
              }
              JOINT Bip01_L_Toe0
              {
                OFFSET 1.40707 0.688009 -0.883564
                CHANNELS 6 Xposition Yposition Zposition Zrotation Xrotation Yrotation
                JOINT Bip01_L_Toe01
                {
                  OFFSET 2.26828 0 0
                  CHANNELS 6 Xposition Yposition Zposition Zrotation Xrotation Yrotation
                  JOINT Bip01_L_Toe02
                  {
                    OFFSET 2.0977 0 0
                    CHANNELS 6 Xposition Yposition Zposition Zrotation Xrotation Yrotation
                    JOINT Bip01_L_Toe0Nub
                    {
                      OFFSET 1.53752 0 0
                      CHANNELS 6 Xposition Yposition Zposition Zrotation Xrotation Yrotation
                      End Site
                      {
                        OFFSET 0 0 0
                      }
                    }
                  }
                }
              }
            }
          }
        }
      }
      JOINT Bip01_Spine1
      {
        OFFSET 4.90674 -0.00437896 0
        CHANNELS 6 Xposition Yposition Zposition Zrotation Xrotation Yrotation
        JOINT Bip01_Neck
        {
          OFFSET 5.56447 -1.28357 0
          CHANNELS 6 Xposition Yposition Zposition Zrotation Xrotation Yrotation
          JOINT Bip01_Neck1
          {
            OFFSET 2.79308 -0.00219964 0
            CHANNELS 6 Xposition Yposition Zposition Zrotation Xrotation Yrotation
            JOINT Bip01_Head
            {
              OFFSET 2.79272 0 0
              CHANNELS 6 Xposition Yposition Zposition Zrotation Xrotation Yrotation
              JOINT BN_Mouth_01
              {
                OFFSET 4.19089 0.0665938 0
                CHANNELS 6 Xposition Yposition Zposition Zrotation Xrotation Yrotation
                End Site
                {
                  OFFSET 0 0 0
                }
              }
              JOINT Bip01_HeadNub
              {
                OFFSET 6.95118 0 0
                CHANNELS 6 Xposition Yposition Zposition Zrotation Xrotation Yrotation
                End Site
                {
                  OFFSET 0 0 0
                }
              }
            }
          }
        }
      }
    }
  }
}
MOTION
Frames:	3
Frame Time:	0.0333333
0.849866 91.44 0 -175.247 -90 -90 0 4.54747e-013 0 -89.9987 6.18131 -89.9989 -5.52397 -0.332268 4.33681e-019 -35.3922 0.00990295 179.968 6.48885 -7.6294e-006 -0.00301498 13.1432 -1.94974e-009 6.73952e-010 7.08758 7.10543e-015 -0.00296926 21.0985 0.020392 0.013989 4.02115 0.399948 -3.80997e-005 -4.85098 0.598182 3.40367 4.84412 -3.2285 -3.65581 -81.6726 -8.74456 35.7459 8.5161 0 7.62939e-006 36.3246 -0.00153484 -20.2371 10.1924 -1.42109e-014 1.90735e-006 -30.909 0.675284 -22.3419 14.5949 -1.43856 0.585077 -48.2962 -1.49342 21.2378 14.4623 3.81471e-006 -1.90735e-006 -2.99638 -0.00273973 19.865 4.84411 -3.22853 3.65557 98.3175 -8.72061 -144.236 8.51613 -3.55272e-015 0 -36.3245 0.00154394 -20.2371 10.1924 -3.8147e-006 1.90735e-006 30.909 -0.675285 -22.3419 14.4623 -1.90735e-006 -1.90735e-006 2.99636 0.00273723 19.865 14.5949 1.43855 0.585062 48.2962 1.49342 21.2378 -3.76132 -0.77372 -3.67577 -91.1807 -2.57494 173.573 3.92619 -1.90735e-006 -9.53675e-007 -75.4755 2.01237e-006 1.00474e-005 6.12318 1.42109e-014 -1.77636e-015 99.2199 -1.77873e-006 -1.01567e-005 9.94777 0 0.00129604 -51.9021 4.7101 6.04958 0.881234 -0.110938 0.0158851 153.243 -4.55437 179.841 2.32137 7.62947e-006 0 81.3801 6.86929e-007 -1.45842e-006 1.63291 7.62952e-006 0 -87.5396 7.97264e-008 9.15895e-006 1.72127 3.81479e-006 0 -2.4139e-007 1.50134e-006 -2.35784e-007 0.994751 0.967401 -1.09414 100.721 3.64007 27.2464 2.202 1.5259e-005 -8.88178e-016 55.6113 0.0132158 0.0325728 1.84923 3.81477e-006 0.000620186 -35.3107 0.00197401 -0.0177067 1.70976 0 1.19209e-007 7.24925e-007 9.92173e-006 -3.99344e-007 1.37475 1.34031 -0.0710569 112.119 -1.01062 -2.51398 2.26123 7.6295e-006 -0.00071168 31.1465 0.0168914 0.0606382 2.22213 0.000934615 0.00157452 -38.4851 0.0115187 -0.0330281 1.61866 -7.62954e-006 -4.76837e-007 4.81834e-008 -1.32101e-008 6.20681e-008 1.40686 0.687946 0.883913 102.531 -7.69388 -31.0521 2.26828 -1.42111e-014 0 26.1292 5.96851e-006 -5.85436e-006 2.09768 -7.62952e-006 0 -61.0221 9.04813e-007 -9.16975e-006 1.53753 1.42112e-014 9.53674e-007 -9.47594e-007 9.3715e-006 -4.17784e-007 -4.17168 -0.701462 3.21918 -97.4545 7.91299 -174.151 3.92615 -3.8147e-006 -1.77636e-015 -76.5763 -3.6677e-006 -1.71345e-005 6.1232 0 0 132.919 -6.19315e-006 -7.13667e-006 9.94776 -1.52589e-005 -9.53674e-007 -17.9056 -7.50589 3.63863 0.881239 -0.111001 -0.0158117 109.133 3.20213 -176.691 2.32138 -1.43053e-006 0.000677824 44.4274 -0.0158577 -0.038842 1.63293 -1.5259e-005 -0.000754356 -43.5222 0.00649104 0.00259784 1.72131 -4.76846e-007 -2.38419e-007 -179.963 0.0132686 -0.00139808 0.994746 0.967329 1.09422 72.5415 10.6247 -25.4659 2.20201 7.1055e-015 0.000713348 63.0626 -0.0173302 -0.0550038 1.84924 0 -0.00122452 -35.3145 -0.00954042 0.0299886 1.70978 3.55278e-015 3.8147e-006 179.965 0.017776 -5.07762e-005 1.37485 1.34022 0.0711683 77.648 -0.578101 2.62899 2.26123 7.62947e-006 8.88178e-016 49.2911 8.1601e-006 7.86687e-006 2.22212 1.90738e-006 -2.38419e-007 -38.5073 -1.519e-005 -1.00761e-005 1.61866 -3.81477e-006 7.15256e-007 179.961 -0.000377269 -0.00525316 1.407 0.687847 -0.883795 83.9474 -3.75323 31.6978 2.26828 1.14442e-005 3.81469e-006 49.9345 -1.85547e-006 -2.49539e-006 2.09771 -3.81475e-006 7.10542e-015 -61.0221 -5.73376e-006 -1.40348e-005 1.53752 7.10559e-015 7.10542e-015 179.961 0.000567087 -0.00532159 4.9071 -0.00428772 -0.000376225 9.04795 4.95588 -2.0849 5.56425 -1.28357 0.000253677 -1.92277 -6.57525 8.33693 2.79365 -0.0019989 0.000150204 24.6191 -3.8675 -9.68557 2.79272 0 -2.22045e-016 28.0902 -1.35029 0.453163 4.19087 0.0665818 2.38419e-007 -126.987 -0.0398712 -179.98 6.95115 7.6294e-006 2.38419e-007 2.12691e-006 1.00115e-005 -1.80533e-008 
-2.36344 95.1979 -0.5399 171.35 -88.7336 -105.984 0 4.54303e-013 -1.77636e-015 -89.6381 6.94493 -89.7861 -5.52397 -0.332268 -2.22045e-016 -35.1304 -0.009552 -179.959 6.48885 -7.6294e-006 -0.00301498 13.4656 -0.00266869 -0.115459 7.08758 -2.4869e-012 -0.00296926 21.4778 -0.0225604 -0.141316 4.0143 0.455337 0.0134046 -3.24023 0.682368 2.46931 4.84412 -3.2285 -3.65581 -78.5533 -7.38115 42.0572 8.5161 -3.37508e-014 7.62939e-006 35.9115 -1.12314 -20.1566 10.1924 2.13163e-014 1.90735e-006 -30.8885 0.664272 -24.2632 14.5949 -1.43856 0.585077 -48.3116 -1.55903 15.2733 14.4623 3.81471e-006 -1.90735e-006 -2.99429 9.28217e-005 13.5387 4.84411 -3.22853 3.65557 101.836 -7.79709 -137.861 8.51613 -4.26326e-014 -1.42109e-014 -36.0807 0.661323 -20.2388 10.1924 -3.8147e-006 1.90735e-006 30.8885 -0.664276 -24.2632 14.4623 -1.90735e-006 -1.90735e-006 2.99561 0.00204704 15.1278 14.5949 1.43855 0.585062 48.3192 1.564 14.8532 -3.82959 -0.721872 -3.62757 -91.0662 -2.51077 173.023 3.92619 -1.90735e-006 -9.53675e-007 -74.2421 2.38083e-006 9.97956e-006 6.12318 0 1.42109e-014 97.3386 -1.60607e-006 -1.00078e-005 9.94777 1.26477e-012 0.00129604 -51.9248 5.09355 8.11436 0.881234 -0.110938 0.0158851 153.472 -4.61207 179.847 2.32137 7.62947e-006 0 80.1613 -0.0263967 -0.00457947 1.63291 7.62952e-006 1.77636e-015 -87.5396 3.43837e-007 9.04039e-006 1.72127 3.81479e-006 -4.44089e-015 -2.4139e-007 1.50134e-006 -2.35784e-007 0.994751 0.967401 -1.09414 100.289 3.40719 27.275 2.202 1.5259e-005 -7.54951e-015 55.6103 0.0111815 0.0311811 1.84923 3.81477e-006 0.000620186 -35.3104 0.00153182 -0.0170825 1.70976 1.42112e-014 1.19209e-007 7.24925e-007 9.92173e-006 -3.99344e-007 1.37475 1.34031 -0.0710569 111.605 -0.999772 -2.51829 2.26123 7.62951e-006 -0.00071168 31.1828 0.0151466 0.0576812 2.22213 0.000934615 0.00157452 -38.4851 0.0115188 -0.0330278 1.61866 -7.62954e-006 -4.76837e-007 4.81834e-008 -1.32101e-008 6.20681e-008 1.40686 0.687946 0.883913 102.103 -7.43613 -31.1089 2.26828 0 0 26.1292 6.01408e-006 -6.45314e-006 2.09768 -7.62952e-006 5.32907e-015 -61.0224 0.000136344 -8.39172e-005 1.53753 -2.84224e-014 9.53674e-007 -9.47594e-007 9.3715e-006 -4.17784e-007 -4.12741 -0.639561 3.27304 -99.6295 8.44293 -173.205 3.92615 -3.8147e-006 -1.77636e-015 -77.883 -3.32573e-006 -1.71825e-005 6.1232 0 -1.42109e-014 131.718 1.72722e-006 -1.38279e-005 9.94776 -1.52589e-005 -9.53674e-007 -22.6026 -6.24585 1.86879 0.881239 -0.111001 -0.0158117 109.594 3.25179 -176.713 2.32138 -1.43052e-006 0.000677824 44.1381 0.00467697 -0.0179614 1.63293 -1.5259e-005 -0.000754356 -43.9752 0.00557916 0.00357323 1.72131 -4.76846e-007 -2.38419e-007 -179.963 0.0132686 -0.00139807 0.994746 0.967329 1.09422 72.1987 10.785 -25.4023 2.202 -4.21356e-012 0.000713348 62.2538 0.0244238 -0.0336888 1.84924 -3.90804e-014 -0.00122452 -35.3145 -0.00954144 0.0299883 1.70978 2.48694e-014 3.8147e-006 179.965 0.017776 -5.07765e-005 1.37485 1.34022 0.0711683 77.261 -0.594685 2.62529 2.26123 7.62947e-006 8.88178e-016 48.7169 -0.00475504 -0.00417396 2.22212 1.90738e-006 -2.38419e-007 -38.5073 -1.50616e-005 -1.03241e-005 1.61866 -3.81477e-006 7.15256e-007 179.961 -0.000377269 -0.00525316 1.407 0.687847 -0.883795 83.6197 -3.95407 31.6759 2.26828 1.14442e-005 3.81469e-006 49.3591 -0.0143207 -0.012292 2.09771 -3.81475e-006 0 -61.0221 -4.19848e-006 -1.30646e-005 1.53752 7.10559e-015 0 179.961 0.000567085 -0.00532159 4.9071 -0.00428772 -0.000376225 10.2861 4.77379 -1.37779 5.56425 -1.28357 0.000253677 -0.307392 -6.23954 8.78014 2.79365 -0.0019989 0.000150204 23.8246 -3.96317 -8.65805 2.79272 -1.42109e-014 -8.88178e-016 26.3734 -1.34914 2.03914 4.19087 0.0665818 2.38807e-007 -126.892 -0.0331116 -179.983 6.95115 7.6294e-006 2.38419e-007 2.12691e-006 1.00115e-005 -1.80533e-008 
-5.79533 99.1245 -1.09022 172.279 -87.383 -107.83 0 4.54747e-013 3.55271e-015 -89.2225 7.72135 -89.5946 -5.52397 -0.332268 2.22045e-016 -34.4164 -0.00492859 -179.94 6.48885 -7.62941e-006 -0.00301498 14.0272 0.000392038 -0.426409 7.08758 -5.21539e-012 -0.00296926 22.0527 -0.0162075 -0.467154 4.00758 0.509661 0.0265862 -1.45747 0.733215 1.47832 4.84412 -3.2285 -3.65581 -72.5357 -4.40106 57.4534 8.5161 -1.12799e-013 7.62939e-006 34.891 -3.95408 -19.9562 10.1924 1.42109e-014 1.90735e-006 -30.8448 0.64385 -27.9888 14.5949 -1.43856 0.585077 -48.3589 -1.65468 1.35424 14.4623 3.81471e-006 -1.90735e-006 -2.9975 0.00296906 -1.04946 4.84411 -3.22853 3.65557 109.101 -5.42647 -122.362 8.51613 -1.24345e-013 0 -35.4099 2.47629 -20.2569 10.1924 -3.8147e-006 1.90735e-006 30.8448 -0.643851 -27.9888 14.4623 -1.90735e-006 -1.90735e-006 2.9954 0.000212899 3.6214 14.5949 1.43855 0.585062 48.3884 1.65882 0.125039 -3.90284 -0.655267 -3.57463 -90.9051 -2.46336 172.365 3.92619 -1.90735e-006 -9.53675e-007 -72.8758 2.78074e-006 9.88169e-006 6.12318 0 2.66454e-014 95.2417 -1.2405e-006 -9.85783e-006 9.94777 2.36612e-012 0.00129604 -51.8024 5.43174 10.435 0.881234 -0.110938 0.0158851 154.126 -4.57863 179.907 2.32137 7.62947e-006 0 76.7234 -0.0288132 -0.00680048 1.63291 7.62952e-006 0 -87.5396 5.78535e-007 8.77251e-006 1.72127 3.81479e-006 -1.77636e-015 -2.4139e-007 1.50134e-006 -2.35784e-007 0.994751 0.967401 -1.09414 99.0348 2.75985 27.3426 2.202 1.5259e-005 -2.22044e-014 55.6093 0.00918505 0.0298153 1.84923 3.81477e-006 0.000620186 -35.31 0.00107386 -0.016436 1.70976 -1.42112e-014 1.19209e-007 7.24925e-007 9.92173e-006 -3.99344e-007 1.37475 1.34031 -0.0710569 110.201 -0.936218 -2.54258 2.26123 7.62952e-006 -0.00071168 31.1828 0.0114757 0.0516163 2.22213 0.000934615 0.00157452 -38.4851 0.0115191 -0.0330275 1.61866 -7.62954e-006 -4.76837e-007 4.81834e-008 -1.32101e-008 6.20681e-008 1.40686 0.687946 0.883913 100.885 -6.70548 -31.2586 2.26828 -2.84221e-014 -3.55271e-015 26.1292 6.49108e-006 -5.85779e-006 2.09768 -7.62952e-006 0 -61.0228 0.00025611 -0.000149742 1.53753 -1.42112e-014 9.53674e-007 -9.47594e-007 9.3715e-006 -4.17784e-007 -4.08106 -0.56653 3.33003 -101.976 9.01768 -172.225 3.92615 -3.8147e-006 0 -79.2205 -2.55451e-006 -1.73059e-005 6.1232 -2.84218e-014 -2.4869e-014 130.541 -5.27845e-006 -7.16811e-006 9.94776 -1.52589e-005 -9.53674e-007 -27.5141 -4.47631 0.161028 0.881238 -0.111001 -0.0158117 110.818 3.28002 -176.816 2.32138 -1.43052e-006 0.000677824 43.1459 0.0115759 -0.0108478 1.63293 -1.5259e-005 -0.000754356 -45.199 0.00554057 0.00365311 1.72131 -4.76846e-007 -2.38419e-007 -179.963 0.0132686 -0.00139807 0.994746 0.967329 1.09422 71.197 11.2498 -25.2108 2.202 -7.94395e-012 0.000713348 59.9575 0.0206234 -0.0356514 1.84924 4.52001e-012 -0.00122452 -35.3145 -0.00954295 0.0299879 1.70978 0 3.8147e-006 179.965 0.017776 -5.07771e-005 1.37485 1.34022 0.0711683 76.1798 -0.643083 2.61387 2.26123 7.62947e-006 1.77636e-015 47.012 -0.00235073 -0.00218977 2.22212 1.90738e-006 -2.38419e-007 -38.5073 -2.10666e-005 -2.52577e-006 1.61866 -3.81477e-006 7.15256e-007 179.961 -0.00037727 -0.00525316 1.407 0.687847 -0.883795 82.696 -4.52384 31.6073 2.26828 1.14442e-005 3.81469e-006 47.6764 2.20668e-006 4.51564e-006 2.09771 -3.81475e-006 -2.27373e-013 -61.0221 -1.09861e-006 -1.1386e-005 1.53752 -1.42112e-014 -7.10542e-015 179.961 0.000567085 -0.00532159 4.9071 -0.00428772 -0.000376225 11.7457 4.59641 -0.613778 5.56425 -1.28357 0.000253677 1.45877 -5.87032 9.31269 2.79365 -0.0019989 0.000150204 23.0869 -4.10051 -7.50911 2.79272 1.42109e-014 4.44089e-016 24.4289 -1.19471 3.65856 4.19087 0.0665818 2.39192e-007 -126.799 -0.0264893 -179.985 6.95115 7.6294e-006 2.38419e-007 2.12691e-006 1.00115e-005 -1.80533e-008 
